<?xml version="1.0" encoding="UTF-8" standalone="no"?>
<svg width="211px" height="60px" viewBox="0 0 211 60" version="1.1" xmlns="http://www.w3.org/2000/svg" xmlns:xlink="http://www.w3.org/1999/xlink">
    <!-- Generator: Sketch 3.7 (28169) - http://www.bohemiancoding.com/sketch -->
    <title>Styles</title>
    <desc>Created with Sketch.</desc>
    <defs>
        <rect id="path-1" x="0.629925961" y="0" width="209.765345" height="60" rx="3"></rect>
        <mask id="mask-2" maskContentUnits="userSpaceOnUse" maskUnits="objectBoundingBox" x="0" y="0" width="209.765345" height="60" fill="white">
            <use xlink:href="#path-1"></use>
        </mask>
    </defs>
    <g id="Style-Guide" stroke="none" stroke-width="1" fill="none" fill-rule="evenodd">
        <g id="Styles" transform="translate(-222.000000, -265.000000)">
            <g id="Group-3" transform="translate(222.000000, 265.000000)">
                <ellipse id="Oval-1" stroke="#979797" fill="#D8D8D8" cx="29.3797468" cy="36.6666667" rx="12.0189873" ry="6"></ellipse>
                <g id="Group-2">
                    <use id="Rectangle-4" stroke="#F46036" mask="url(#mask-2)" stroke-width="4" fill="#414770" xlink:href="#path-1"></use>
                    <text id="Post-an-ad" font-family="Avenir-Medium, Avenir" font-size="26.6567386" font-weight="400" letter-spacing="-0.316037744" fill="#FFFFFF">
                        <tspan x="65.4367089" y="37.4875622">Post an ad</tspan>
                    </text>
                    <g id="Group" transform="translate(22.702532, 10.208955)" fill="#F46036">
                        <rect id="Rectangle-5" transform="translate(11.919480, 16.212252) rotate(-60.000000) translate(-11.919480, -16.212252) " x="2.57458981" y="8.41097074" width="18.6897798" height="15.6025625" rx="1"></rect>
                        <rect id="Rectangle-6" transform="translate(16.629350, 7.951218) rotate(-330.000000) translate(-16.629350, -7.951218) " x="5.27808425" y="5.84176503" width="22.7025316" height="4.21890547" rx="3"></rect>
                    </g>
                </g>
                <path d="M29.9396028,37.0852921 C36.5775062,37.0852921 41.9585901,34.3990006 41.9585901,31.0852921 C41.9585901,31.0852922 17.9206155,31.0852921 17.9206155,31.0852921 C17.9206155,34.3990006 23.3016994,37.0852921 29.9396028,37.0852921 Z" id="Oval-2" fill="#F46036" transform="translate(29.939603, 34.085292) rotate(-150.000000) translate(-29.939603, -34.085292) "></path>
                <path d="M30.0474684,32.6666667 L23.3702532,44.6666667" id="Line" stroke="#F46036" stroke-width="2" stroke-linecap="round"></path>
            </g>
        </g>
    </g>
</svg>